<?xml version="1.0" encoding="utf-8"?>
<!-- Generator: Adobe Illustrator 25.0.0, SVG Export Plug-In . SVG Version: 6.00 Build 0)  -->
<svg version="1.1" id="Layer_1" xmlns="http://www.w3.org/2000/svg" xmlns:xlink="http://www.w3.org/1999/xlink" x="0px" y="0px"
	 viewBox="0 0 4 15" style="enable-background:new 0 0 4 15;" xml:space="preserve">
<style type="text/css">
	.st0{fill:#081730;}
</style>
<rect x="3" class="st0" width="1" height="1"/>
<rect x="2" y="1" class="st0" width="1" height="1"/>
<rect y="1" class="st0" width="1" height="1"/>
<polygon class="st0" points="2,2 1,2 1,3 0,3 0,4 1,4 1,4 1,5 2,5 2,4 2,4 3,4 3,3 2,3 "/>
<rect x="3" y="2" class="st0" width="1" height="1"/>
<polygon class="st0" points="3,6 3,7 2,7 2,6 1,6 1,7 0,7 0,8 1,8 2,8 3,8 4,8 4,7 4,7 4,6 4,5 4,4 3,4 3,5 2,5 2,6 "/>
<rect y="5" class="st0" width="1" height="1"/>
<polygon class="st0" points="2,11 1,11 0,11 0,12 1,12 2,12 3,12 4,12 4,11 3,11 "/>
<polygon class="st0" points="2,12 1,12 1,13 0,13 0,14 0,15 1,15 2,15 3,15 4,15 4,14 4,13 3,13 2,13 2,13 3,13 4,13 4,12 3,12 "/>
<polygon class="st0" points="3,9 2,9 2,8 1,8 1,9 0,9 0,10 0,10 0,11 1,11 2,11 2,10 3,10 3,11 4,11 4,10 4,10 4,9 4,9 4,8 3,8 "/>
</svg>
