<svg width="150" height="31" viewBox="0 0 150 31" fill="none" xmlns="http://www.w3.org/2000/svg">
<path d="M5.95593 0H4.4353V10.3333H0V13.3577H4.4353V22.1788H5.95593V26.4634H7.47656V27.9756H8.99719V29.4878H10.3912V31H25.2177V28.1016H13.4325V26.5894H10.3912V25.0772H8.87048V22.1788H7.47656V13.3577H11.9119V10.3333H7.47656V1.51221H5.95593V0Z" fill="white"/>
<path d="M17.8678 1.51221H19.2617V13.3577H22.303V11.8455H26.7383V13.3577H28.2589V14.8699H29.653V17.6423H31.1736V25.0772H26.865V17.6423H25.3444V16.2561H22.303V17.6423H20.7823V19.1545H19.2617V24.9512H17.8678V26.5894H16.3472V24.9512H14.9531V1.51221H16.3472V0H17.8678V1.51221Z" fill="white"/>
<path fill-rule="evenodd" clip-rule="evenodd" d="M37.1295 22.1788H43.0854V25.0772H37.1295V23.5651H34.2148V20.6667H32.6942V13.2317H34.2148V10.3333H35.7356V8.82117H37.1295V7.30896H43.0854V8.82117H44.6061V10.3333H46V11.8455H44.6061V13.2317H43.0854V14.7439H35.6088V20.6667H37.1295V22.1788ZM43.0854 10.3333H40.1708V11.7195H43.0854V10.3333Z" fill="white"/>
<path d="M56.4943 0H52V24.9929H56.4943V19.09H65.4828V16.2014H59.4476V14.6943H60.9885V13.3128H62.5294V10.2986H63.9419V8.79144H65.4828V5.90283H62.5294V7.40997H61.1169V8.91705H59.576V10.2986H58.0352V11.8057H56.4943V0Z" fill="white"/>
<path fill-rule="evenodd" clip-rule="evenodd" d="M122.624 0H118.13L118.13 10.2986H116.589V8.91705H113.635V7.40997H107.729V8.91705H106.188V10.2986H104.775V11.8057H103.234V17.5829H104.647V20.5972H107.729V21.9787H113.635V20.5972H116.717V17.5829H118.13L118.13 24.9929H122.624V19.09H131.612V16.2014H125.577V14.6943H127.118V13.3128H128.659V10.2986H130.071V8.79144H131.612V5.90283H128.659V7.40997H127.246V8.91705H125.706V10.2986H124.165V11.8057H122.624V0ZM107.6 17.5829H109.141V19.09H113.635V17.5829H115.176V11.6801H113.635V10.2986H109.141V11.6801H107.6V17.5829Z" fill="white"/>
<path fill-rule="evenodd" clip-rule="evenodd" d="M73.0587 4.39575V3.01422H79.0939V4.39575H80.5063V5.90283H82.0472V11.6801H80.5063V13.1872H79.0939V14.6943H83.5881V16.2014H86.6699V11.8057H88.2107V10.2986H89.6233V8.91705H91.1641V7.40997H97.0708V8.91705H100.024V10.2986H101.565V17.5829H100.153V20.5972H97.0708V21.9787H91.1641V20.5972H88.0824V17.5829H86.6699V19.09H82.1757V17.5829H74.5996V16.0758H73.0587V26.3744H71.6462V25.1185H70.1053V7.40997H71.6462V4.39575H73.0587ZM74.5996 10.2986V11.8057H73.0587V7.28436H74.4712V5.90283H77.6814V8.91705H76.1405V10.2986H74.5996ZM91.0356 17.5829H92.5765V19.09H97.0708V17.5829H98.6117V11.6801H97.0708V10.2986H92.5765V11.6801H91.0356V17.5829Z" fill="white"/>
<path d="M139.317 1.50708H143.683V4.39575H142.27V5.90283H140.729V7.28436H139.188V8.79144H137.647V14.6943H139.188V16.2014H143.683V17.7086H146.764V19.09H148.305V20.5972H149.846V24.9929H148.305V26.5H145.224V23.4858H146.764V20.5972H142.27V19.09H137.776V17.5829H136.235V16.0758H134.823V7.40997H136.235V4.39575H137.904V3.01422H139.317V1.50708Z" fill="white"/>
</svg>
